<?xml version="1.0" encoding="utf-8"?>
<!-- Generator: Adobe Illustrator 21.0.0, SVG Export Plug-In . SVG Version: 6.00 Build 0)  -->
<svg version="1.1" id="РЎР»РѕР№_1" xmlns="http://www.w3.org/2000/svg" xmlns:xlink="http://www.w3.org/1999/xlink" x="0px" y="0px"
	 viewBox="0 0 447.7 312.4" style="enable-background:new 0 0 447.7 312.4;" xml:space="preserve">
<style type="text/css">
	.st0{fill:#243A65;}
	.st1{fill:#004E8C;}
	.st2{fill:none;}
	.st3{fill:#DFF1FC;}
	.st4{fill:#636B74;}
	.st5{fill:#FFFFFF;}
</style>
<g>
	<path class="st0" d="M305.3,34.2c11.9-0.1,20.6,1.5,28.7,5c2.1,1,4.1,2.1,6.2,3.1c0.7,0.4,1.5,0.9,2.2,1.3c0,7.6,0,15.2-0.1,22.8
		c-0.1,0-0.1-0.1-0.2-0.1c-0.8-1.8-4.9-4.9-6.6-6.1c-8.1-6-21.8-11.2-36.1-7.6c-11.1,2.8-21.7,9.5-26.6,18.3c-1.2,2.1-2.5,4-3.5,6.4
		c-0.2,0.6-0.9,1.7-0.8,2.1c-1.1,2.6-1.6,5.6-2.2,8.7c-0.1,1.1-0.2,2.2-0.2,3.4c0,1.4,0,2.7-0.1,4.1c0.2,1.5,0.3,3,0.5,4.6
		c0.6,3.2,1.4,6.2,2.6,9c4.9,12,14.8,20.4,27.7,24.5c6.9,2.2,17.6,2.3,24.6,0.1c6.1-1.9,11.2-4.6,15.7-8.1c1.3-1.2,2.7-2.5,4-3.7
		c0.5-0.5,0.9-1,1.4-1.4c0,5.6,0,11.3,0,16.9c0,1,0.2,5.4-0.1,5.9c-1.5,1.5-5.6,3.2-7.8,4.1c-11.8,5.1-28.4,7.4-42.9,2.9
		c-19.8-6.1-33.1-19-40.2-37.4c-3.1-8.1-4.5-21.1-2.2-31.3c4.5-19.6,18-35.4,35.4-42.4c4-1.6,8.2-2.8,12.8-3.9
		c1.9-0.3,3.7-0.5,5.6-0.8C303.8,34.3,304.5,34.3,305.3,34.2z"/>
	<path class="st0" d="M65.3,39.8c6.9,0,8.1,4.3,10.6,8.5c3.1,5.2,5.8,10.6,8.9,15.8c15.2,27.1,30.4,54.3,45.6,81.4
		c-6.8,0-13.7,0-20.5,0c-4.8-8.7-9.7-17.5-14.5-26.2c-15.3,0-30.6,0-45.9,0c2.7-5,5.3-9.9,8-14.9c9.9,0,19.8,0,29.7,0
		c0-0.1,0-0.1-0.1-0.2C80,91.4,72.8,78.5,65.7,65.6c0,0-0.1,0-0.1,0.1C50.9,92.3,36.3,119,21.7,145.6c-6.5,0-12.9,0-19.4,0
		c0-0.1,0-0.1,0-0.2c14.7-26.2,29.3-52.5,44-78.7c3-5.4,6.1-10.8,9.1-16.2c1.9-3.3,3.3-7.1,6.3-9.3C62.8,40.4,64,40.4,65.3,39.8z"/>
	<path class="st0" d="M194.6,39.8c7.2,0,8.6,4.9,11.2,9.4c2.9,5.2,5.9,10.4,8.8,15.7c15.1,26.9,30.1,53.8,45.2,80.7
		c-6.8,0-13.7,0-20.5,0c-4.8-8.7-9.7-17.5-14.5-26.2c-15.3,0-30.7,0-46,0c0,0,0,0,0-0.1c2.7-4.9,5.3-9.9,8-14.9c9.9,0,19.8,0,29.8,0
		c0,0-0.1-0.1-0.1-0.1c-7.1-12.9-14.2-25.8-21.3-38.6c0,0-0.1,0-0.1,0.1c-14.6,26.6-29.3,53.2-43.9,79.8c-6.5,0-12.9,0-19.4,0
		c0,0,0,0,0-0.1c14.3-25.5,28.5-51,42.8-76.6c3.2-5.8,6.4-11.5,9.7-17.3c2.1-3.5,3.5-7.8,6.7-10.3C192,40.4,193.1,40.5,194.6,39.8z"
		/>
	<path class="st0" d="M359.1,41.2c28.9,0,57.8,0,86.7,0c0,6.1,0,12.2,0,18.3c-23.3,0-46.5,0-69.8,0c0,22.6,0,45.1,0,67.7
		c23.3,0,46.6,0,69.8,0c0,6.1,0,12.2,0,18.3c-28.9,0-57.8,0-86.7,0C359.1,110.8,359.1,76,359.1,41.2z"/>
	<path class="st0" d="M388.3,84.8c18,0,35.9,0,53.9,0.1c0,5.1,0,10.3,0,15.4c-18,0-35.9,0-53.9,0C388.3,95.1,388.3,90,388.3,84.8z"
		/>
	<path class="st1" d="M307.5,57.3c3.6-0.1,6.9,0.1,9.8,0.9c1.7,0.5,3.3,1,5,1.5c1.1,2.8,2.4,6.2,2.5,9.7c-1.4,0.7-2.4,1.7-2.6,3.6
		c0,0.5,0,0.9,0.1,1.4c-2,0.2-4.7,1.6-6.5,2.4c-4.6,2-9,4.2-12.9,6.9c-1.3,1-2.6,2.1-3.9,3.1c-1.3-0.3-1.5-1.1-3.7-1.1
		c-0.8-1.9-1.6-3.7-2.4-5.6c-1.3-3.3-2-6.8-2.7-10.7c-0.2-1.3-0.8-5.6-0.2-6.7c1.1-0.6,2.2-1.2,3.2-1.7c2-0.9,4-1.7,6.2-2.3
		c1.8-0.5,3.7-0.7,5.6-1.1C305.9,57.4,306.7,57.3,307.5,57.3z"/>
	<path class="st1" d="M324.8,60.8c4.6,2.2,11.2,6.7,13.6,10.9c-2.2,0-4.4,0-6.2,0.4c-0.6,0.1-1.2,0.1-1.9,0.2
		c-0.2-0.1-0.7-1.7-1.2-2.1c-0.6-0.5-1.8-0.7-2.3-1.1c-0.2-1.1-0.4-2.2-0.6-3.4C325.8,64,325.3,62.4,324.8,60.8z"/>
	<path class="st1" d="M287.8,64c0,0.8,0,1.5,0.1,2.3c0.1,1.2,0.2,2.3,0.4,3.5c0.7,3.7,1.5,7.2,2.7,10.4c0.4,1.1,2.5,5.6,2.4,6.2
		c-1.2,0.6-2.4,2.7-1.7,4.7c0.3,0.6,0.7,1.2,1,1.8c-1.9,1.5-4.8,5.4-6.1,7.6c-1-0.2-2-1-3.6-0.6c-1,0.3-1.6,1.1-2.4,1.3
		c-2.6-2.2-6.1-3.6-8.2-6.4c-0.7-11.6,4.5-19.3,9.5-25.5c1.1-1.4,2.8-2.8,4.2-3.9C286.7,64.8,287.3,64.4,287.8,64z"/>
	<path class="st1" d="M335.6,73.6c1.5,0,2.9,0,4.4,0.1c0.8,1.4,1.6,2.8,2.4,4.2c2.6,5.8,4.9,14.3,2.9,22.6c-0.4,1.5-0.9,5.1-1.7,6.1
		c-0.8,1-7,2.6-8.9,3.1c-3,0.8-6.4,1.1-9.7,1.7c-1,0.1-2.1,0.1-3.1,0.2c-0.2-0.4-0.3-0.9-0.5-1.3c-0.2-0.3-0.5-0.5-0.7-0.8
		c0-0.1,0-0.2,0-0.3c0.3-0.6,0.6-1.1,0.9-1.7c0.6-1.4,1.2-2.9,1.7-4.3c1.5-3.8,2.5-7.9,3.4-12.4c0.2-2,0.4-3.9,0.6-5.9
		c0.4-2.3,0.4-5.4,0.2-7.9c1-0.3,1.8-0.9,2.3-1.7c0.2-0.4,0.4-0.7,0.6-1.1C331.9,73.7,334,74.3,335.6,73.6z"/>
	<path class="st2" d="M323.3,76c0.7,0.5,1.2,0.9,2.2,1.2c0.2,9.5-1.2,17.8-3.9,24.6c-0.6,1.5-1.8,5.3-2.7,6.3
		c-2.3-0.6-3.1,0.2-4.9,0.6c-1.3-1.1-2.7-2.2-4-3.3c-3.6-2.9-8.5-8.5-10.7-12.8c0.7-1,1.3-2.5,0.7-4.1c0.8-1,2.1-1.8,3.2-2.6
		c4.2-3.1,8.9-5.6,14-7.8C319.2,77.5,321.2,76.7,323.3,76z"/>
	<path class="st2" d="M297.4,93.9c0.5,0.2,3.4,4.8,4.1,5.6c2.7,3.5,7.5,8.3,11.2,10.7c-0.2,0.4-0.4,0.9-0.6,1.3
		c-6.8,0.1-13.7-2.2-18.7-4.2c-1.7-0.7-3.5-1.4-5.2-2.1c0-0.6,0.1-1.2,0.1-1.8c-0.2-0.5-0.4-1-0.6-1.5c1.9-2.8,4-5.8,6.5-8
		C295.2,94.2,296.7,94.4,297.4,93.9z"/>
	<path class="st1" d="M272.5,97.7c0.5,0.5,1.1,0.9,1.6,1.4c1.6,1.2,3.5,3.1,5.5,3.8c-0.1,2.4,0.4,4.3,2.2,5.1
		c-0.1,0.7-0.5,1.1-0.7,1.6c-0.7,1.6-1.6,3.4-1.9,5.3c0,0-0.1,0-0.1-0.1c-0.8-1.2-1.5-2.4-2.3-3.6
		C274.7,107.7,272.8,102.8,272.5,97.7z"/>
	<path class="st1" d="M287.1,107.1c2.4,1,4.9,2,7.3,2.9c5.1,2,11.1,3.4,17.7,3.6c0.3,1.5,1.1,2.1,1.8,3.1c-0.4,1.1-1.4,2.1-2.1,3
		c-1.9,2.5-3.9,5.3-6.4,7.2c-1,0.8-2,1.7-3.1,2.5c-8-0.7-18-7.5-21.7-12.7c0.5-1.7,0.9-3.3,1.5-4.8c0.5-1.2,1.1-2.3,1.6-3.5
		C285.2,108.5,286.5,108,287.1,107.1z"/>
	<path class="st1" d="M342.2,109.3c0.1,0,0.1,0,0.2,0c-1.6,3.3-4.3,8-7.1,10c-3.9-0.3-7.5-2.1-10.4-3.6c-0.7-0.4-2.8-0.9-2.9-1.8
		c0,0,0,0,0.1-0.1c0-0.1,0.1-0.1,0.1-0.2c5.8,0.1,12-1.6,16.5-3.1C339.9,110.2,341.2,109.9,342.2,109.3z"/>
	<path class="st1" d="M321,115.9c1.1,0.6,2.2,1.1,3.3,1.7c2.7,1.4,5.9,2.9,9.3,3.3c0,0,0,0.1-0.1,0.1c-0.9,0.7-1.8,1.5-2.7,2.2
		c-1.5,0.9-3,1.8-4.4,2.7c-3.1,1.8-6.8,2.8-10.8,3.7c-1.5,0.2-2.9,0.3-4.4,0.5c-2.1,0.3-4.3-0.2-6.2-0.2c0,0,0,0,0-0.1
		c0.1-0.1,0.2-0.2,0.2-0.3c1.3-0.6,2.6-2.2,3.5-3.2c1.8-2.2,3.8-4.1,5.4-6.5c0.5-0.7,1-1.4,1.5-2.1
		C318.2,117.9,319.9,117.4,321,115.9z"/>
	<path class="st3" d="M322.3,59.7c0.9,0.4,1.7,0.7,2.6,1.1c0.2,0.8,0.5,1.6,0.7,2.4c0.6,1.8,1,3.8,1.2,5.9c1.9,0.2,3.2,1.5,3.6,3.2
		c1.9-0.1,6.4-1.2,8.2-0.5c0.5,0.7,0.9,1.3,1.4,2c-3.4-0.2-6.7,0.2-9.6,0.6c-0.3,1.3-1.4,2.5-2.7,2.7c0.1,8.3-0.7,15.7-2.7,22
		c-0.9,2.4-1.8,4.8-2.7,7.2c-0.5,1-1,2-1.4,3.1c0.6,0.5,1,1.3,1.2,2.2c1.6-0.2,3.3-0.3,4.9-0.5c4.5-0.8,8.6-1.3,12.4-2.7
		c1.5-0.6,2.9-1.2,4.4-1.8c-0.4,0.9-0.8,1.9-1.2,2.8c-1.3,0.9-3.2,1.1-4.7,1.6c-4.6,1.4-9.9,2.5-15.6,2.7c0,0.1,0,0.3-0.1,0.4
		c1.9,1,3.8,1.9,5.7,2.9c2.4,1,4.9,1.5,7.7,2.3c-0.2,0.2-0.4,0.5-0.6,0.7c-0.4,0.3-0.7,0.6-1.1,0.9c-3.7-1.1-6.8-2.1-9.9-3.7
		c-1.4-0.7-2.4-1.8-3.4-0.5c-1.3,0.6-2.4,1.3-4.5,0.9c-0.7,0.9-1.3,1.9-2,2.8c-2.5,3.4-5.4,7-8.8,9.4c-0.9-0.1-1.7-0.3-2.6-0.4
		c0,0,0-0.1,0.1-0.1c0.9-0.4,1.5-1.2,2.2-1.8c2.6-2.1,4.8-4.6,6.7-7.3c0.8-1,2.2-2.2,2.5-3.6c-0.6-0.4-1.2-1.2-1.5-1.9
		c-0.1-0.4-0.2-0.7-0.3-1.1c-0.7,0-1.4-0.1-2.1-0.1c-2-0.3-3.9-0.5-5.9-0.8c-4.1-0.9-8-1.9-11.6-3.4c-1.8-0.7-3.6-1.5-5.4-2.2
		c-0.7,0.8-1.9,1.4-3.4,1.4c-0.7,1.7-1.5,3.5-2.2,5.2c-0.3,1-0.6,2.1-0.9,3.1c-0.5-0.7-1-1.3-1.4-2c0.9-2.4,1.7-4.7,2.7-6.8
		c-1.8-0.7-2.5-2.6-2.2-5.1c-1-0.4-6.7-4.5-7.1-5.2c-0.1-1-0.1-2-0.2-3c0.8,0.8,1.7,1.5,2.5,2.3c1.9,1.5,3.8,2.8,5.8,4.1
		c1.3-1,4-2.2,5.7-0.7c0.8-1,1.5-2.1,2.3-3.1c1.3-1.5,2.6-3,3.9-4.5c-1.3-2.2-1.7-5.2,0.9-6.6c-2.2-4.9-3.8-9.9-5.1-15.9
		c-0.3-1.2-1-5.5-0.4-6.6c0.6-0.4,1.2-0.7,1.8-1.1c0,0,0,0,0.1,0c-0.3,7.2,1.4,13,3.4,18.2c0.7,1.6,1.4,3.2,2.1,4.7
		c0.6,0,1.2,0.1,1.8,0.1c0.5,0.2,1.5,1,1.8,0.9c1.5-1.1,3-2.3,4.4-3.4c3.5-2.4,7.4-4.5,11.5-6.3c1.7-0.7,3.5-1.3,5.2-2
		c0.6-0.2,1.8-0.3,2.1-0.8c-0.8-2.7,1.3-3.7,2.5-4.8c-0.3-2.5-0.9-4.9-1.6-7.2C322.9,61.3,322.6,60.5,322.3,59.7z"/>
	<path class="st1" d="M323.2,76.1c-1.5,0.5-2.9,1-4.4,1.5c-3,1.2-6,2.4-8.7,4c-2.1,1.3-4.2,2.6-6.4,3.9c-1.2,1-2.5,2-3.7,3
		c0.5,1.6-0.6,4.3-0.6,4.3c0.6,1.7,2.1,3.2,3.1,4.6c3.1,4.2,7.2,8.4,11.5,11.4c0.8-0.3,1.4-0.8,2.4-0.9c0.8-0.1,2.1,0.4,2.4,0.2
		c0.8-1.1,1.2-2.6,1.7-3.9c1.6-3.7,2.7-7.6,3.7-12c0.3-2.1,0.6-4.2,0.9-6.4c0.1-2.1,0.2-4.2,0.3-6.4c0-0.7,0-1.5-0.1-2.2L323.2,76.1
		z"/>
	<path class="st1" d="M297.5,93.9c-1.2,0.8-2.8-0.1-3.7,0.6c-0.8,1-1.7,1.9-2.5,2.9c-1.1,1.5-2.3,3-3.4,4.6c0.2,0.5,0.3,1,0.5,1.5
		c0.1,0.6-0.2,1.6,0,1.9c1.7,1.2,4.2,1.8,6.3,2.6c5,1.9,10.9,3.6,17.5,3.7c0.2-0.5,0.3-0.9,0.5-1.4c-1-0.5-1.8-1.5-2.7-2.2
		c-3.2-2.5-6.4-5.6-8.8-8.9C300,97.4,298.7,95.7,297.5,93.9z"/>
	<path class="st4" d="M131.5,247.4c-1.3,0-2.5,0-3.8,0c0-7.6-8.4-6.5-15.9-6.5c-3.4,0-7.3-0.4-10.5,0.1c-2.6,0.4-4.9,0.8-6.2,2.5
		c-2.1,2.6-2.1,7.2-2.1,11.9c0,1.3,0,2.7,0,4c0.7,4.8,0.3,8,4.4,9.6c2.9,1.1,7.6,0.7,11.5,0.7c2.7,0,5.4,0,8.1,0
		c6.1,0,10.8-0.4,10.8-6.5c1.3,0,2.5,0,3.8,0c0.1,11.3-9.5,10.2-20.5,10.2c-5,0-10.6,0.4-14.6-0.8c-4.3-1.3-6-4.2-6.9-8.9
		c-0.1-1.4-0.2-2.9-0.4-4.3c0-1.9,0-3.7,0-5.6c0-10.3,1.9-14.9,10.7-16.5c3.7-0.7,8.4-0.3,12.6-0.3
		C122.9,237.1,131.6,237,131.5,247.4z"/>
	<path class="st4" d="M208,237.2c8.4-0.1,19.6-1,23.4,3.7c0.8,1,1.5,2.3,1.9,3.7c1.4,4.8,1.4,18-0.3,22.4c-0.7,1.8-1.9,3.3-3.5,4.3
		c-3.3,2.1-8.7,2.1-14.1,2.1c-7.9,0-17.2,0.7-20.7-3.7c-3-3.8-2.8-10.8-2.7-17.7c0-3.3,0.4-6.6,1.4-8.9c1.6-3.6,4.8-4.8,9.2-5.6
		C204.4,237.5,206.2,237.4,208,237.2z"/>
	<path class="st4" d="M46.4,247.7c-1.3,0-2.6,0-3.9,0c0-6.4-5.8-6.5-12.2-6.5c-3.1,0-6.2,0-9.3,0c-3.9,0-8.9-0.5-11.3,1.2
		c-1.1,0.8-2.1,2.9-1.8,5.1c0.2,1.2,0.2,2.3,0.7,3.1c1.6,2.5,5.9,1.8,9.4,2.4c0.9,0,1.9,0,2.8,0c1.8,0,3.6,0.1,5.4,0.1
		c2.1,0.1,4.3,0.1,6.4,0.2c1.5,0.1,3.1,0.3,4.6,0.4c5.9,1.1,10.1,3.2,9.4,10.8c-0.1,1.6-0.3,3.1-0.9,4.3c-2.3,5.4-9.9,4.7-17.6,4.7
		c-11.9,0-23.9,1.9-23.8-10.3c1.3,0,2.5,0,3.8,0c-0.1,6.4,5.6,6.6,12,6.6c3,0,6,0,9,0c4.5,0,9.4,0.3,11.9-1.6
		c1.2-0.9,2.1-3.4,1.7-5.8c-0.9-5.2-4.3-4.5-9.4-5.3c-1.1,0-2.2,0-3.3-0.1c-1.7,0-3.4-0.1-5.1-0.1c-2.5-0.1-5-0.1-7.5-0.2
		c-1.6-0.1-3.2-0.2-4.9-0.4c-5.8-1.1-9.3-3-8.6-10.4c0.1-1.5,0.4-2.8,0.9-3.9c2.3-5.1,9.9-4.6,17.3-4.6
		C34.2,237.4,46.5,235.6,46.4,247.7z"/>
	<path class="st4" d="M51.9,237.4c10.7,0,21.4,0,32.1,0c0,1.3,0,2.5,0,3.8c-9.4,0-18.9,0-28.3,0c0,3.9,0,7.9,0,11.8
		c9.1,0,18.3,0,27.4,0c0,1.3,0,2.5,0,3.8c-9.1,0-18.3,0-27.4,0c0,4.3,0,8.7,0,13c9.4,0,18.9,0,28.3,0c0,1.2,0,2.5,0,3.7
		c-10.7,0-21.4,0-32.1,0C51.9,261.5,51.9,249.5,51.9,237.4z"/>
	<path class="st4" d="M135.1,237.4c13,0,26,0,39.1,0c0,1.3,0,2.5,0,3.8c-5.9,0-11.8,0-17.7,0c0,10.8,0,21.5,0,32.3
		c-1.3,0-2.5,0-3.8,0c0-10.8,0-21.5,0-32.3c-5.9,0-11.7,0-17.6,0C135.1,240,135.1,238.7,135.1,237.4z"/>
	<path class="st4" d="M180.4,237.4c1.3,0,2.5,0,3.8,0c0,12,0,24.1,0,36.1c-1.3,0-2.5,0-3.8,0C180.4,261.5,180.4,249.5,180.4,237.4z"
		/>
	<path class="st4" d="M239.4,237.4c2.8,0,5.5,0,8.3,0c9.3,10.8,18.5,21.5,27.8,32.3c0-10.8,0-21.5,0-32.3c1.3,0,2.5,0,3.8,0
		c0,12,0,24.1,0,36.1c-1.9,0-3.7,0-5.6,0c-7.2-8.3-14.4-16.6-21.5-25c-2.3-2.7-4.7-5.5-7-8.2c-0.7,0-1.3,0-2,0c0,11.1,0,22.1,0,33.2
		c-1.3,0-2.5,0-3.8,0C239.4,261.5,239.4,249.5,239.4,237.4z"/>
	<path class="st5" d="M207.3,241.1c-1.2,0.1-2.3,0.1-3.5,0.2c-3.2,0.5-5.5,1-6.9,3.3c-1,1.8-0.7,4.2-1.1,6.7c0,1.6,0,3.2-0.1,4.8
		c0,4.9-0.1,9.9,2.8,11.9c3.3,2.3,10.6,1.7,16,1.7c4.8,0,10.5,0.3,13.3-1.9c2.8-2.2,2.6-7.6,2.6-12.6c0-2.1,0.1-4.3-0.2-6.2
		c-0.4-2.5-0.6-4.7-2.2-6C224.4,240.2,213.9,241.1,207.3,241.1z"/>
	<path class="st1" d="M56.5,170.6c3.2,0,6.5,0,9.7,0c0,7,0,13.9,0,20.9c0,3.5-0.3,7.4,1.2,9.4c2.3,3,9.4,2.2,14.7,2.2
		c3.4,0,7.2,0.3,9.4-1c2.8-1.7,2.6-5.5,2.6-9.9c0-7.2,0-14.4,0-21.6c3.3,0,6.5,0,9.8,0c0,7.8,0,15.6,0,23.3c0,6.1-0.1,11.5-3.5,14.2
		c-4,3.2-10.3,3.2-17.7,3.2c-10.4,0-20.6,0.9-24.5-5.6c-1.9-3.2-1.8-8-1.8-13.1C56.5,185.3,56.5,177.9,56.5,170.6z"/>
	<path class="st1" d="M216.2,170.6c3.3,0,6.5,0,9.8,0c0,13.6,0,27.1,0,40.7c-3.3,0-6.5,0-9.8,0C216.2,197.7,216.2,184.2,216.2,170.6
		z"/>
	<path class="st1" d="M5.2,170.7c9,0,18,0,27,0c6.6,0,12.6,0.1,15.5,3.8c0.8,1,1.5,2.3,1.9,3.6c1.4,4.7,1.2,15.4-2.5,17
		c0,0,0,0.1,0.1,0.1c4.6,1.5,3.5,10,3.5,16.1c-3.3,0-6.6,0-9.9,0c0-4.1,0.6-9.1-1.7-10.9c-1.8-1.4-5-1.2-8.2-1.2
		c-5.3,0-10.6,0-15.8,0c0,4,0,8.1,0,12.1c-3.3,0-6.5,0-9.8,0C5.2,197.7,5.2,184.2,5.2,170.7z"/>
	<path class="st1" d="M156.1,182.2c-3.5,0-7,0-10.5,0c0-1.2-0.3-2.3-1.1-2.7c-1.7-1.1-5.3-0.7-7.9-0.7c-3.9,0-13.7-0.6-15.8,0.8
		c-1,0.7-1.5,2.9-1,4.5c1,3.1,10,1.6,13.9,2.2c7.1,1.1,14.8-0.7,19.5,2.9c1.9,1.5,2.4,3.9,2.9,6.9c0.2,1.4,0.4,3.3,0.1,4.8
		c-0.3,2.1-0.5,4-1.4,5.6c-3.2,5.5-11.3,4.8-20,4.8c-13.5,0-26.2,2.5-26.1-11.5c3.3,0,6.7,0,10,0c0.1,1.7,1.1,2.6,2.4,3.1
		c1.9,0.7,5.3,0.3,7.7,0.3c4,0,13.3,0.7,15.7-0.8c1.2-0.7,1.9-2.8,1.3-4.7c-1.2-4.2-8.2-2.4-12.9-3.2c-2-0.1-4-0.2-6-0.2
		c-1.5-0.1-3-0.1-4.4-0.2c-8.2-1.3-12.3,0.1-13.8-8.4c-0.2-1.2-0.3-2.9-0.2-4.3c0.2-2.3,0.6-4.3,1.5-5.9c3.2-5.2,11.2-4.7,19.6-4.7
		C142.8,170.7,156,168.9,156.1,182.2z"/>
	<path class="st1" d="M208.6,182.2c-3.5,0-7,0-10.5,0c0-1.2-0.3-2.3-1.1-2.7c-1.7-1.1-5.3-0.7-7.9-0.7c-3.9,0-13.7-0.6-15.8,0.8
		c-1,0.7-1.5,2.9-1,4.5c1,3.1,10,1.6,13.9,2.2c7.1,1.1,14.8-0.7,19.5,2.9c1.9,1.5,2.4,3.9,2.9,6.9c0.2,1.4,0.4,3.3,0.1,4.8
		c-0.3,2.1-0.5,4-1.4,5.6c-3.2,5.5-11.3,4.8-20,4.8c-13.5,0-26.2,2.5-26.1-11.5c3.3,0,6.7,0,10,0c0.1,1.7,1.1,2.6,2.4,3.1
		c1.9,0.7,5.3,0.3,7.7,0.3c4,0,13.3,0.7,15.7-0.8c1.2-0.7,1.9-2.8,1.3-4.7c-1.2-4.2-8.2-2.4-12.9-3.2c-2-0.1-4-0.2-6-0.2
		c-1.5-0.1-3-0.1-4.4-0.2c-8.2-1.3-12.3,0.1-13.8-8.4c-0.2-1.2-0.3-2.9-0.2-4.3c0.2-2.3,0.6-4.3,1.5-5.9c3.2-5.2,11.2-4.7,19.6-4.7
		C195.3,170.7,208.5,168.9,208.6,182.2z"/>
	<path class="st1" d="M251.6,170.7c5.2,0,10.4,0,15.5,0c7,13.5,13.9,27.1,20.9,40.6c-3.8,0-7.7,0-11.5,0c-1.6-3.3-3.2-6.5-4.9-9.8
		c-8.2,0-16.4,0-24.6,0c-1.7,3.3-3.4,6.5-5.1,9.8c-3.8,0-7.6,0-11.4,0C237.6,197.7,244.6,184.2,251.6,170.7z"/>
	<path class="st5" d="M259.3,178.3c-2.7,5-5.3,10-8,15c5.3,0,10.7,0,16,0c0,0,0,0,0-0.1c-2.6-5-5.2-10-7.7-15
		C259.5,178.3,259.4,178.3,259.3,178.3z"/>
	<path class="st5" d="M14.8,180.4c0,3,0,6.1,0,9.1c5.7,0,11.4,0,17.2,0c2.6,0,5.9,0.3,7.4-0.9c0.9-0.7,0.8-1.9,1.1-3.2
		c0.3-1.7-0.4-3.6-1.2-4.2c-1.5-1.1-4.8-0.7-7.2-0.7C26.2,180.4,20.5,180.4,14.8,180.4z"/>
</g>
</svg>
