<?xml version="1.0" encoding="UTF-8" standalone="no"?>
<!-- Created with Inkscape (http://www.inkscape.org/) -->

<svg
   xmlns:dc="http://purl.org/dc/elements/1.1/"
   xmlns:cc="http://creativecommons.org/ns#"
   xmlns:rdf="http://www.w3.org/1999/02/22-rdf-syntax-ns#"
   xmlns:svg="http://www.w3.org/2000/svg"
   xmlns="http://www.w3.org/2000/svg"
   xmlns:sodipodi="http://sodipodi.sourceforge.net/DTD/sodipodi-0.dtd"
   xmlns:inkscape="http://www.inkscape.org/namespaces/inkscape"
   width="210mm"
   height="297mm"
   viewBox="0 0 210 297"
   version="1.1"
   id="svg865"
   inkscape:version="0.92.4 (5da689c313, 2019-01-14)"
   sodipodi:docname="LOGO VECTOR.svg">
  <defs
     id="defs859" />
  <sodipodi:namedview
     id="base"
     pagecolor="#ffffff"
     bordercolor="#666666"
     borderopacity="1.0"
     inkscape:pageopacity="0.0"
     inkscape:pageshadow="2"
     inkscape:zoom="1.979899"
     inkscape:cx="277.32124"
     inkscape:cy="359.4607"
     inkscape:document-units="mm"
     inkscape:current-layer="g1480"
     showgrid="false"
     inkscape:window-width="1920"
     inkscape:window-height="1017"
     inkscape:window-x="-8"
     inkscape:window-y="-8"
     inkscape:window-maximized="1" />
  <metadata
     id="metadata862">
    <rdf:RDF>
      <cc:Work
         rdf:about="">
        <dc:format>image/svg+xml</dc:format>
        <dc:type
           rdf:resource="http://purl.org/dc/dcmitype/StillImage" />
        <dc:title></dc:title>
      </cc:Work>
    </rdf:RDF>
  </metadata>
  <g
     inkscape:label="Capa 1"
     inkscape:groupmode="layer"
     id="layer1">
    <g
       id="g1480"
       transform="matrix(0.26458333,0,0,0.26458333,27.654629,139.86359)">
	<path
   id="path1412"
   d="m 305.3,34.2 c 11.9,-0.1 20.6,1.5 28.7,5 2.1,1 4.1,2.1 6.2,3.1 0.7,0.4 1.5,0.9 2.2,1.3 0,7.6 0,15.2 -0.1,22.8 -0.1,0 -0.1,-0.1 -0.2,-0.1 -0.8,-1.8 -4.9,-4.9 -6.6,-6.1 -8.1,-6 -21.8,-11.2 -36.1,-7.6 -11.1,2.8 -21.7,9.5 -26.6,18.3 -1.2,2.1 -2.5,4 -3.5,6.4 -0.2,0.6 -0.9,1.7 -0.8,2.1 -1.1,2.6 -1.6,5.6 -2.2,8.7 -0.1,1.1 -0.2,2.2 -0.2,3.4 0,1.4 0,2.7 -0.1,4.1 0.2,1.5 0.3,3 0.5,4.6 0.6,3.2 1.4,6.2 2.6,9 4.9,12 14.8,20.4 27.7,24.5 6.9,2.2 17.6,2.3 24.6,0.1 6.1,-1.9 11.2,-4.6 15.7,-8.1 1.3,-1.2 2.7,-2.5 4,-3.7 0.5,-0.5 0.9,-1 1.4,-1.4 0,5.6 0,11.3 0,16.9 0,1 0.2,5.4 -0.1,5.9 -1.5,1.5 -5.6,3.2 -7.8,4.1 -11.8,5.1 -28.4,7.4 -42.9,2.9 -19.8,-6.1 -33.1,-19 -40.2,-37.4 -3.1,-8.1 -4.5,-21.1 -2.2,-31.3 4.5,-19.6 18,-35.4 35.4,-42.4 4,-1.6 8.2,-2.8 12.8,-3.9 1.9,-0.3 3.7,-0.5 5.6,-0.8 0.7,-0.3 1.4,-0.3 2.2,-0.4 z"
   class="st0"
   inkscape:connector-curvature="0"
   style="fill:#243a65" />

	<path
   id="path1414"
   d="m 65.3,39.8 c 6.9,0 8.1,4.3 10.6,8.5 3.1,5.2 5.8,10.6 8.9,15.8 15.2,27.1 30.4,54.3 45.6,81.4 -6.8,0 -13.7,0 -20.5,0 -4.8,-8.7 -9.7,-17.5 -14.5,-26.2 -15.3,0 -30.6,0 -45.9,0 2.7,-5 5.3,-9.9 8,-14.9 9.9,0 19.8,0 29.7,0 0,-0.1 0,-0.1 -0.1,-0.2 C 80,91.4 72.8,78.5 65.7,65.6 c 0,0 -0.1,0 -0.1,0.1 -14.7,26.6 -29.3,53.3 -43.9,79.9 -6.5,0 -12.9,0 -19.4,0 0,-0.1 0,-0.1 0,-0.2 14.7,-26.2 29.3,-52.5 44,-78.7 3,-5.4 6.1,-10.8 9.1,-16.2 1.9,-3.3 3.3,-7.1 6.3,-9.3 1.1,-0.8 2.3,-0.8 3.6,-1.4 z"
   class="st0"
   inkscape:connector-curvature="0"
   style="fill:#243a65" />

	<path
   id="path1416"
   d="m 194.6,39.8 c 7.2,0 8.6,4.9 11.2,9.4 2.9,5.2 5.9,10.4 8.8,15.7 15.1,26.9 30.1,53.8 45.2,80.7 -6.8,0 -13.7,0 -20.5,0 -4.8,-8.7 -9.7,-17.5 -14.5,-26.2 -15.3,0 -30.7,0 -46,0 0,0 0,0 0,-0.1 2.7,-4.9 5.3,-9.9 8,-14.9 9.9,0 19.8,0 29.8,0 0,0 -0.1,-0.1 -0.1,-0.1 -7.1,-12.9 -14.2,-25.8 -21.3,-38.6 0,0 -0.1,0 -0.1,0.1 -14.6,26.6 -29.3,53.2 -43.9,79.8 -6.5,0 -12.9,0 -19.4,0 0,0 0,0 0,-0.1 14.3,-25.5 28.5,-51 42.8,-76.6 3.2,-5.8 6.4,-11.5 9.7,-17.3 2.1,-3.5 3.5,-7.8 6.7,-10.3 1,-0.9 2.1,-0.8 3.6,-1.5 z"
   class="st0"
   inkscape:connector-curvature="0"
   style="fill:#243a65" />

	<path
   id="path1418"
   d="m 359.1,41.2 c 28.9,0 57.8,0 86.7,0 0,6.1 0,12.2 0,18.3 -23.3,0 -46.5,0 -69.8,0 0,22.6 0,45.1 0,67.7 23.3,0 46.6,0 69.8,0 0,6.1 0,12.2 0,18.3 -28.9,0 -57.8,0 -86.7,0 0,-34.7 0,-69.5 0,-104.3 z"
   class="st0"
   inkscape:connector-curvature="0"
   style="fill:#243a65" />

	<path
   id="path1420"
   d="m 388.3,84.8 c 18,0 35.9,0 53.9,0.1 0,5.1 0,10.3 0,15.4 -18,0 -35.9,0 -53.9,0 0,-5.2 0,-10.3 0,-15.5 z"
   class="st0"
   inkscape:connector-curvature="0"
   style="fill:#243a65" />

	<path
   id="path1422"
   d="m 307.5,57.3 c 3.6,-0.1 6.9,0.1 9.8,0.9 1.7,0.5 3.3,1 5,1.5 1.1,2.8 2.4,6.2 2.5,9.7 -1.4,0.7 -2.4,1.7 -2.6,3.6 0,0.5 0,0.9 0.1,1.4 -2,0.2 -4.7,1.6 -6.5,2.4 -4.6,2 -9,4.2 -12.9,6.9 -1.3,1 -2.6,2.1 -3.9,3.1 -1.3,-0.3 -1.5,-1.1 -3.7,-1.1 -0.8,-1.9 -1.6,-3.7 -2.4,-5.6 -1.3,-3.3 -2,-6.8 -2.7,-10.7 -0.2,-1.3 -0.8,-5.6 -0.2,-6.7 1.1,-0.6 2.2,-1.2 3.2,-1.7 2,-0.9 4,-1.7 6.2,-2.3 1.8,-0.5 3.7,-0.7 5.6,-1.1 0.9,-0.2 1.7,-0.3 2.5,-0.3 z"
   class="st1"
   inkscape:connector-curvature="0"
   style="fill:#004e8c" />

	<path
   id="path1424"
   d="m 324.8,60.8 c 4.6,2.2 11.2,6.7 13.6,10.9 -2.2,0 -4.4,0 -6.2,0.4 -0.6,0.1 -1.2,0.1 -1.9,0.2 -0.2,-0.1 -0.7,-1.7 -1.2,-2.1 -0.6,-0.5 -1.8,-0.7 -2.3,-1.1 -0.2,-1.1 -0.4,-2.2 -0.6,-3.4 -0.4,-1.7 -0.9,-3.3 -1.4,-4.9 z"
   class="st1"
   inkscape:connector-curvature="0"
   style="fill:#004e8c" />

	<path
   id="path1426"
   d="m 287.8,64 c 0,0.8 0,1.5 0.1,2.3 0.1,1.2 0.2,2.3 0.4,3.5 0.7,3.7 1.5,7.2 2.7,10.4 0.4,1.1 2.5,5.6 2.4,6.2 -1.2,0.6 -2.4,2.7 -1.7,4.7 0.3,0.6 0.7,1.2 1,1.8 -1.9,1.5 -4.8,5.4 -6.1,7.6 -1,-0.2 -2,-1 -3.6,-0.6 -1,0.3 -1.6,1.1 -2.4,1.3 -2.6,-2.2 -6.1,-3.6 -8.2,-6.4 -0.7,-11.6 4.5,-19.3 9.5,-25.5 1.1,-1.4 2.8,-2.8 4.2,-3.9 0.6,-0.6 1.2,-1 1.7,-1.4 z"
   class="st1"
   inkscape:connector-curvature="0"
   style="fill:#004e8c" />

	<path
   id="path1428"
   d="m 335.6,73.6 c 1.5,0 2.9,0 4.4,0.1 0.8,1.4 1.6,2.8 2.4,4.2 2.6,5.8 4.9,14.3 2.9,22.6 -0.4,1.5 -0.9,5.1 -1.7,6.1 -0.8,1 -7,2.6 -8.9,3.1 -3,0.8 -6.4,1.1 -9.7,1.7 -1,0.1 -2.1,0.1 -3.1,0.2 -0.2,-0.4 -0.3,-0.9 -0.5,-1.3 -0.2,-0.3 -0.5,-0.5 -0.7,-0.8 0,-0.1 0,-0.2 0,-0.3 0.3,-0.6 0.6,-1.1 0.9,-1.7 0.6,-1.4 1.2,-2.9 1.7,-4.3 1.5,-3.8 2.5,-7.9 3.4,-12.4 0.2,-2 0.4,-3.9 0.6,-5.9 0.4,-2.3 0.4,-5.4 0.2,-7.9 1,-0.3 1.8,-0.9 2.3,-1.7 0.2,-0.4 0.4,-0.7 0.6,-1.1 1.5,-0.5 3.6,0.1 5.2,-0.6 z"
   class="st1"
   inkscape:connector-curvature="0"
   style="fill:#004e8c" />

	<path
   id="path1430"
   d="m 323.3,76 c 0.7,0.5 1.2,0.9 2.2,1.2 0.2,9.5 -1.2,17.8 -3.9,24.6 -0.6,1.5 -1.8,5.3 -2.7,6.3 -2.3,-0.6 -3.1,0.2 -4.9,0.6 -1.3,-1.1 -2.7,-2.2 -4,-3.3 -3.6,-2.9 -8.5,-8.5 -10.7,-12.8 0.7,-1 1.3,-2.5 0.7,-4.1 0.8,-1 2.1,-1.8 3.2,-2.6 4.2,-3.1 8.9,-5.6 14,-7.8 2,-0.6 4,-1.4 6.1,-2.1 z"
   class="st2"
   inkscape:connector-curvature="0"
   style="fill:none" />

	<path
   id="path1432"
   d="m 297.4,93.9 c 0.5,0.2 3.4,4.8 4.1,5.6 2.7,3.5 7.5,8.3 11.2,10.7 -0.2,0.4 -0.4,0.9 -0.6,1.3 -6.8,0.1 -13.7,-2.2 -18.7,-4.2 -1.7,-0.7 -3.5,-1.4 -5.2,-2.1 0,-0.6 0.1,-1.2 0.1,-1.8 -0.2,-0.5 -0.4,-1 -0.6,-1.5 1.9,-2.8 4,-5.8 6.5,-8 1,0.3 2.5,0.5 3.2,0 z"
   class="st2"
   inkscape:connector-curvature="0"
   style="fill:none" />

	<path
   id="path1434"
   d="m 272.5,97.7 c 0.5,0.5 1.1,0.9 1.6,1.4 1.6,1.2 3.5,3.1 5.5,3.8 -0.1,2.4 0.4,4.3 2.2,5.1 -0.1,0.7 -0.5,1.1 -0.7,1.6 -0.7,1.6 -1.6,3.4 -1.9,5.3 0,0 -0.1,0 -0.1,-0.1 -0.8,-1.2 -1.5,-2.4 -2.3,-3.6 -2.1,-3.5 -4,-8.4 -4.3,-13.5 z"
   class="st1"
   inkscape:connector-curvature="0"
   style="fill:#004e8c" />

	<path
   id="path1436"
   d="m 287.1,107.1 c 2.4,1 4.9,2 7.3,2.9 5.1,2 11.1,3.4 17.7,3.6 0.3,1.5 1.1,2.1 1.8,3.1 -0.4,1.1 -1.4,2.1 -2.1,3 -1.9,2.5 -3.9,5.3 -6.4,7.2 -1,0.8 -2,1.7 -3.1,2.5 -8,-0.7 -18,-7.5 -21.7,-12.7 0.5,-1.7 0.9,-3.3 1.5,-4.8 0.5,-1.2 1.1,-2.3 1.6,-3.5 1.5,0.1 2.8,-0.4 3.4,-1.3 z"
   class="st1"
   inkscape:connector-curvature="0"
   style="fill:#004e8c" />

	<path
   id="path1438"
   d="m 342.2,109.3 c 0.1,0 0.1,0 0.2,0 -1.6,3.3 -4.3,8 -7.1,10 -3.9,-0.3 -7.5,-2.1 -10.4,-3.6 -0.7,-0.4 -2.8,-0.9 -2.9,-1.8 0,0 0,0 0.1,-0.1 0,-0.1 0.1,-0.1 0.1,-0.2 5.8,0.1 12,-1.6 16.5,-3.1 1.2,-0.3 2.5,-0.6 3.5,-1.2 z"
   class="st1"
   inkscape:connector-curvature="0"
   style="fill:#004e8c" />

	<path
   id="path1440"
   d="m 321,115.9 c 1.1,0.6 2.2,1.1 3.3,1.7 2.7,1.4 5.9,2.9 9.3,3.3 0,0 0,0.1 -0.1,0.1 -0.9,0.7 -1.8,1.5 -2.7,2.2 -1.5,0.9 -3,1.8 -4.4,2.7 -3.1,1.8 -6.8,2.8 -10.8,3.7 -1.5,0.2 -2.9,0.3 -4.4,0.5 -2.1,0.3 -4.3,-0.2 -6.2,-0.2 0,0 0,0 0,-0.1 0.1,-0.1 0.2,-0.2 0.2,-0.3 1.3,-0.6 2.6,-2.2 3.5,-3.2 1.8,-2.2 3.8,-4.1 5.4,-6.5 0.5,-0.7 1,-1.4 1.5,-2.1 2.6,0.2 4.3,-0.3 5.4,-1.8 z"
   class="st1"
   inkscape:connector-curvature="0"
   style="fill:#004e8c" />

	<path
   id="path1442"
   d="m 322.3,59.7 c 0.9,0.4 1.7,0.7 2.6,1.1 0.2,0.8 0.5,1.6 0.7,2.4 0.6,1.8 1,3.8 1.2,5.9 1.9,0.2 3.2,1.5 3.6,3.2 1.9,-0.1 6.4,-1.2 8.2,-0.5 0.5,0.7 0.9,1.3 1.4,2 -3.4,-0.2 -6.7,0.2 -9.6,0.6 -0.3,1.3 -1.4,2.5 -2.7,2.7 0.1,8.3 -0.7,15.7 -2.7,22 -0.9,2.4 -1.8,4.8 -2.7,7.2 -0.5,1 -1,2 -1.4,3.1 0.6,0.5 1,1.3 1.2,2.2 1.6,-0.2 3.3,-0.3 4.9,-0.5 4.5,-0.8 8.6,-1.3 12.4,-2.7 1.5,-0.6 2.9,-1.2 4.4,-1.8 -0.4,0.9 -0.8,1.9 -1.2,2.8 -1.3,0.9 -3.2,1.1 -4.7,1.6 -4.6,1.4 -9.9,2.5 -15.6,2.7 0,0.1 0,0.3 -0.1,0.4 1.9,1 3.8,1.9 5.7,2.9 2.4,1 4.9,1.5 7.7,2.3 -0.2,0.2 -0.4,0.5 -0.6,0.7 -0.4,0.3 -0.7,0.6 -1.1,0.9 -3.7,-1.1 -6.8,-2.1 -9.9,-3.7 -1.4,-0.7 -2.4,-1.8 -3.4,-0.5 -1.3,0.6 -2.4,1.3 -4.5,0.9 -0.7,0.9 -1.3,1.9 -2,2.8 -2.5,3.4 -5.4,7 -8.8,9.4 -0.9,-0.1 -1.7,-0.3 -2.6,-0.4 0,0 0,-0.1 0.1,-0.1 0.9,-0.4 1.5,-1.2 2.2,-1.8 2.6,-2.1 4.8,-4.6 6.7,-7.3 0.8,-1 2.2,-2.2 2.5,-3.6 -0.6,-0.4 -1.2,-1.2 -1.5,-1.9 -0.1,-0.4 -0.2,-0.7 -0.3,-1.1 -0.7,0 -1.4,-0.1 -2.1,-0.1 -2,-0.3 -3.9,-0.5 -5.9,-0.8 -4.1,-0.9 -8,-1.9 -11.6,-3.4 -1.8,-0.7 -3.6,-1.5 -5.4,-2.2 -0.7,0.8 -1.9,1.4 -3.4,1.4 -0.7,1.7 -1.5,3.5 -2.2,5.2 -0.3,1 -0.6,2.1 -0.9,3.1 -0.5,-0.7 -1,-1.3 -1.4,-2 0.9,-2.4 1.7,-4.7 2.7,-6.8 -1.8,-0.7 -2.5,-2.6 -2.2,-5.1 -1,-0.4 -6.7,-4.5 -7.1,-5.2 -0.1,-1 -0.1,-2 -0.2,-3 0.8,0.8 1.7,1.5 2.5,2.3 1.9,1.5 3.8,2.8 5.8,4.1 1.3,-1 4,-2.2 5.7,-0.7 0.8,-1 1.5,-2.1 2.3,-3.1 1.3,-1.5 2.6,-3 3.9,-4.5 -1.3,-2.2 -1.7,-5.2 0.9,-6.6 -2.2,-4.9 -3.8,-9.9 -5.1,-15.9 -0.3,-1.2 -1,-5.5 -0.4,-6.6 0.6,-0.4 1.2,-0.7 1.8,-1.1 0,0 0,0 0.1,0 -0.3,7.2 1.4,13 3.4,18.2 0.7,1.6 1.4,3.2 2.1,4.7 0.6,0 1.2,0.1 1.8,0.1 0.5,0.2 1.5,1 1.8,0.9 1.5,-1.1 3,-2.3 4.4,-3.4 3.5,-2.4 7.4,-4.5 11.5,-6.3 1.7,-0.7 3.5,-1.3 5.2,-2 0.6,-0.2 1.8,-0.3 2.1,-0.8 -0.8,-2.7 1.3,-3.7 2.5,-4.8 -0.3,-2.5 -0.9,-4.9 -1.6,-7.2 -0.5,-0.7 -0.8,-1.5 -1.1,-2.3 z"
   class="st3"
   inkscape:connector-curvature="0"
   style="fill:#dff1fc" />

	<path
   id="path1444"
   d="m 323.2,76.1 c -1.5,0.5 -2.9,1 -4.4,1.5 -3,1.2 -6,2.4 -8.7,4 -2.1,1.3 -4.2,2.6 -6.4,3.9 -1.2,1 -2.5,2 -3.7,3 0.5,1.6 -0.6,4.3 -0.6,4.3 0.6,1.7 2.1,3.2 3.1,4.6 3.1,4.2 7.2,8.4 11.5,11.4 0.8,-0.3 1.4,-0.8 2.4,-0.9 0.8,-0.1 2.1,0.4 2.4,0.2 0.8,-1.1 1.2,-2.6 1.7,-3.9 1.6,-3.7 2.7,-7.6 3.7,-12 0.3,-2.1 0.6,-4.2 0.9,-6.4 0.1,-2.1 0.2,-4.2 0.3,-6.4 0,-0.7 0,-1.5 -0.1,-2.2 z"
   class="st1"
   inkscape:connector-curvature="0"
   style="fill:#004e8c" />

	<path
   id="path1446"
   d="m 297.5,93.9 c -1.2,0.8 -2.8,-0.1 -3.7,0.6 -0.8,1 -1.7,1.9 -2.5,2.9 -1.1,1.5 -2.3,3 -3.4,4.6 0.2,0.5 0.3,1 0.5,1.5 0.1,0.6 -0.2,1.6 0,1.9 1.7,1.2 4.2,1.8 6.3,2.6 5,1.9 10.9,3.6 17.5,3.7 0.2,-0.5 0.3,-0.9 0.5,-1.4 -1,-0.5 -1.8,-1.5 -2.7,-2.2 -3.2,-2.5 -6.4,-5.6 -8.8,-8.9 -1.2,-1.8 -2.5,-3.5 -3.7,-5.3 z"
   class="st1"
   inkscape:connector-curvature="0"
   style="fill:#004e8c" />

	<path
   id="path1448"
   d="m 131.5,247.4 c -1.3,0 -2.5,0 -3.8,0 0,-7.6 -8.4,-6.5 -15.9,-6.5 -3.4,0 -7.3,-0.4 -10.5,0.1 -2.6,0.4 -4.9,0.8 -6.2,2.5 -2.1,2.6 -2.1,7.2 -2.1,11.9 0,1.3 0,2.7 0,4 0.7,4.8 0.3,8 4.4,9.6 2.9,1.1 7.6,0.7 11.5,0.7 2.7,0 5.4,0 8.1,0 6.1,0 10.8,-0.4 10.8,-6.5 1.3,0 2.5,0 3.8,0 0.1,11.3 -9.5,10.2 -20.5,10.2 -5,0 -10.6,0.4 -14.6,-0.8 -4.3,-1.3 -6,-4.2 -6.9,-8.9 -0.1,-1.4 -0.2,-2.9 -0.4,-4.3 0,-1.9 0,-3.7 0,-5.6 0,-10.3 1.9,-14.9 10.7,-16.5 3.7,-0.7 8.4,-0.3 12.6,-0.3 10.4,0.1 19.1,0 19,10.4 z"
   class="st4"
   inkscape:connector-curvature="0"
   style="fill:#636b74" />

	<path
   id="path1450"
   d="m 208,237.2 c 8.4,-0.1 19.6,-1 23.4,3.7 0.8,1 1.5,2.3 1.9,3.7 1.4,4.8 1.4,18 -0.3,22.4 -0.7,1.8 -1.9,3.3 -3.5,4.3 -3.3,2.1 -8.7,2.1 -14.1,2.1 -7.9,0 -17.2,0.7 -20.7,-3.7 -3,-3.8 -2.8,-10.8 -2.7,-17.7 0,-3.3 0.4,-6.6 1.4,-8.9 1.6,-3.6 4.8,-4.8 9.2,-5.6 1.8,0 3.6,-0.1 5.4,-0.3 z"
   class="st4"
   inkscape:connector-curvature="0"
   style="fill:#636b74" />

	<path
   id="path1452"
   d="m 46.4,247.7 c -1.3,0 -2.6,0 -3.9,0 0,-6.4 -5.8,-6.5 -12.2,-6.5 -3.1,0 -6.2,0 -9.3,0 -3.9,0 -8.9,-0.5 -11.3,1.2 -1.1,0.8 -2.1,2.9 -1.8,5.1 0.2,1.2 0.2,2.3 0.7,3.1 1.6,2.5 5.9,1.8 9.4,2.4 0.9,0 1.9,0 2.8,0 1.8,0 3.6,0.1 5.4,0.1 2.1,0.1 4.3,0.1 6.4,0.2 1.5,0.1 3.1,0.3 4.6,0.4 5.9,1.1 10.1,3.2 9.4,10.8 -0.1,1.6 -0.3,3.1 -0.9,4.3 -2.3,5.4 -9.9,4.7 -17.6,4.7 -11.9,0 -23.9,1.9 -23.8,-10.3 1.3,0 2.5,0 3.8,0 -0.1,6.4 5.6,6.6 12,6.6 3,0 6,0 9,0 4.5,0 9.4,0.3 11.9,-1.6 1.2,-0.9 2.1,-3.4 1.7,-5.8 -0.9,-5.2 -4.3,-4.5 -9.4,-5.3 -1.1,0 -2.2,0 -3.3,-0.1 -1.7,0 -3.4,-0.1 -5.1,-0.1 -2.5,-0.1 -5,-0.1 -7.5,-0.2 -1.6,-0.1 -3.2,-0.2 -4.9,-0.4 -5.8,-1.1 -9.3,-3 -8.6,-10.4 0.1,-1.5 0.4,-2.8 0.9,-3.9 2.3,-5.1 9.9,-4.6 17.3,-4.6 12.1,0 24.4,-1.8 24.3,10.3 z"
   class="st4"
   inkscape:connector-curvature="0"
   style="fill:#636b74" />

	<path
   id="path1454"
   d="m 51.9,237.4 c 10.7,0 21.4,0 32.1,0 0,1.3 0,2.5 0,3.8 -9.4,0 -18.9,0 -28.3,0 0,3.9 0,7.9 0,11.8 9.1,0 18.3,0 27.4,0 0,1.3 0,2.5 0,3.8 -9.1,0 -18.3,0 -27.4,0 0,4.3 0,8.7 0,13 9.4,0 18.9,0 28.3,0 0,1.2 0,2.5 0,3.7 -10.7,0 -21.4,0 -32.1,0 0,-12 0,-24 0,-36.1 z"
   class="st4"
   inkscape:connector-curvature="0"
   style="fill:#636b74" />

	<path
   id="path1456"
   d="m 135.1,237.4 c 13,0 26,0 39.1,0 0,1.3 0,2.5 0,3.8 -5.9,0 -11.8,0 -17.7,0 0,10.8 0,21.5 0,32.3 -1.3,0 -2.5,0 -3.8,0 0,-10.8 0,-21.5 0,-32.3 -5.9,0 -11.7,0 -17.6,0 0,-1.2 0,-2.5 0,-3.8 z"
   class="st4"
   inkscape:connector-curvature="0"
   style="fill:#636b74" />

	<path
   id="path1458"
   d="m 180.4,237.4 c 1.3,0 2.5,0 3.8,0 0,12 0,24.1 0,36.1 -1.3,0 -2.5,0 -3.8,0 0,-12 0,-24 0,-36.1 z"
   class="st4"
   inkscape:connector-curvature="0"
   style="fill:#636b74" />

	<path
   id="path1460"
   d="m 239.4,237.4 c 2.8,0 5.5,0 8.3,0 9.3,10.8 18.5,21.5 27.8,32.3 0,-10.8 0,-21.5 0,-32.3 1.3,0 2.5,0 3.8,0 0,12 0,24.1 0,36.1 -1.9,0 -3.7,0 -5.6,0 -7.2,-8.3 -14.4,-16.6 -21.5,-25 -2.3,-2.7 -4.7,-5.5 -7,-8.2 -0.7,0 -1.3,0 -2,0 0,11.1 0,22.1 0,33.2 -1.3,0 -2.5,0 -3.8,0 0,-12 0,-24 0,-36.1 z"
   class="st4"
   inkscape:connector-curvature="0"
   style="fill:#636b74" />

	<path
   id="path1462"
   d="m 207.3,241.1 c -1.2,0.1 -2.3,0.1 -3.5,0.2 -3.2,0.5 -5.5,1 -6.9,3.3 -1,1.8 -0.7,4.2 -1.1,6.7 0,1.6 0,3.2 -0.1,4.8 0,4.9 -0.1,9.9 2.8,11.9 3.3,2.3 10.6,1.7 16,1.7 4.8,0 10.5,0.3 13.3,-1.9 2.8,-2.2 2.6,-7.6 2.6,-12.6 0,-2.1 0.1,-4.3 -0.2,-6.2 -0.4,-2.5 -0.6,-4.7 -2.2,-6 -3.6,-2.8 -14.1,-1.9 -20.7,-1.9 z"
   class="st5"
   inkscape:connector-curvature="0"
   style="fill:#ffffff" />

	<path
   id="path1464"
   d="m 56.5,170.6 c 3.2,0 6.5,0 9.7,0 0,7 0,13.9 0,20.9 0,3.5 -0.3,7.4 1.2,9.4 2.3,3 9.4,2.2 14.7,2.2 3.4,0 7.2,0.3 9.4,-1 2.8,-1.7 2.6,-5.5 2.6,-9.9 0,-7.2 0,-14.4 0,-21.6 3.3,0 6.5,0 9.8,0 0,7.8 0,15.6 0,23.3 0,6.1 -0.1,11.5 -3.5,14.2 -4,3.2 -10.3,3.2 -17.7,3.2 -10.4,0 -20.6,0.9 -24.5,-5.6 -1.9,-3.2 -1.8,-8 -1.8,-13.1 0.1,-7.3 0.1,-14.7 0.1,-22 z"
   class="st1"
   inkscape:connector-curvature="0"
   style="fill:#004e8c" />

	<path
   id="path1466"
   d="m 216.2,170.6 c 3.3,0 6.5,0 9.8,0 0,13.6 0,27.1 0,40.7 -3.3,0 -6.5,0 -9.8,0 0,-13.6 0,-27.1 0,-40.7 z"
   class="st1"
   inkscape:connector-curvature="0"
   style="fill:#004e8c" />

	<path
   id="path1468"
   d="m 5.2,170.7 c 9,0 18,0 27,0 6.6,0 12.6,0.1 15.5,3.8 0.8,1 1.5,2.3 1.9,3.6 1.4,4.7 1.2,15.4 -2.5,17 0,0 0,0.1 0.1,0.1 4.6,1.5 3.5,10 3.5,16.1 -3.3,0 -6.6,0 -9.9,0 0,-4.1 0.6,-9.1 -1.7,-10.9 -1.8,-1.4 -5,-1.2 -8.2,-1.2 -5.3,0 -10.6,0 -15.8,0 0,4 0,8.1 0,12.1 -3.3,0 -6.5,0 -9.8,0 C 5.2,197.7 5.2,184.2 5.2,170.7 Z"
   class="st1"
   inkscape:connector-curvature="0"
   style="fill:#004e8c" />

	<path
   id="path1470"
   d="m 156.1,182.2 c -3.5,0 -7,0 -10.5,0 0,-1.2 -0.3,-2.3 -1.1,-2.7 -1.7,-1.1 -5.3,-0.7 -7.9,-0.7 -3.9,0 -13.7,-0.6 -15.8,0.8 -1,0.7 -1.5,2.9 -1,4.5 1,3.1 10,1.6 13.9,2.2 7.1,1.1 14.8,-0.7 19.5,2.9 1.9,1.5 2.4,3.9 2.9,6.9 0.2,1.4 0.4,3.3 0.1,4.8 -0.3,2.1 -0.5,4 -1.4,5.6 -3.2,5.5 -11.3,4.8 -20,4.8 -13.5,0 -26.2,2.5 -26.1,-11.5 3.3,0 6.7,0 10,0 0.1,1.7 1.1,2.6 2.4,3.1 1.9,0.7 5.3,0.3 7.7,0.3 4,0 13.3,0.7 15.7,-0.8 1.2,-0.7 1.9,-2.8 1.3,-4.7 -1.2,-4.2 -8.2,-2.4 -12.9,-3.2 -2,-0.1 -4,-0.2 -6,-0.2 -1.5,-0.1 -3,-0.1 -4.4,-0.2 -8.2,-1.3 -12.3,0.1 -13.8,-8.4 -0.2,-1.2 -0.3,-2.9 -0.2,-4.3 0.2,-2.3 0.6,-4.3 1.5,-5.9 3.2,-5.2 11.2,-4.7 19.6,-4.7 13.2,-0.1 26.4,-1.9 26.5,11.4 z"
   class="st1"
   inkscape:connector-curvature="0"
   style="fill:#004e8c" />

	<path
   id="path1472"
   d="m 208.6,182.2 c -3.5,0 -7,0 -10.5,0 0,-1.2 -0.3,-2.3 -1.1,-2.7 -1.7,-1.1 -5.3,-0.7 -7.9,-0.7 -3.9,0 -13.7,-0.6 -15.8,0.8 -1,0.7 -1.5,2.9 -1,4.5 1,3.1 10,1.6 13.9,2.2 7.1,1.1 14.8,-0.7 19.5,2.9 1.9,1.5 2.4,3.9 2.9,6.9 0.2,1.4 0.4,3.3 0.1,4.8 -0.3,2.1 -0.5,4 -1.4,5.6 -3.2,5.5 -11.3,4.8 -20,4.8 -13.5,0 -26.2,2.5 -26.1,-11.5 3.3,0 6.7,0 10,0 0.1,1.7 1.1,2.6 2.4,3.1 1.9,0.7 5.3,0.3 7.7,0.3 4,0 13.3,0.7 15.7,-0.8 1.2,-0.7 1.9,-2.8 1.3,-4.7 -1.2,-4.2 -8.2,-2.4 -12.9,-3.2 -2,-0.1 -4,-0.2 -6,-0.2 -1.5,-0.1 -3,-0.1 -4.4,-0.2 -8.2,-1.3 -12.3,0.1 -13.8,-8.4 -0.2,-1.2 -0.3,-2.9 -0.2,-4.3 0.2,-2.3 0.6,-4.3 1.5,-5.9 3.2,-5.2 11.2,-4.7 19.6,-4.7 13.2,-0.1 26.4,-1.9 26.5,11.4 z"
   class="st1"
   inkscape:connector-curvature="0"
   style="fill:#004e8c" />

	<path
   id="path1474"
   d="m 251.6,170.7 c 5.2,0 10.4,0 15.5,0 7,13.5 13.9,27.1 20.9,40.6 -3.8,0 -7.7,0 -11.5,0 -1.6,-3.3 -3.2,-6.5 -4.9,-9.8 -8.2,0 -16.4,0 -24.6,0 -1.7,3.3 -3.4,6.5 -5.1,9.8 -3.8,0 -7.6,0 -11.4,0 7.1,-13.6 14.1,-27.1 21.1,-40.6 z"
   class="st1"
   inkscape:connector-curvature="0"
   style="fill:#004e8c" />

	<path
   id="path1476"
   d="m 259.3,178.3 c -2.7,5 -5.3,10 -8,15 5.3,0 10.7,0 16,0 0,0 0,0 0,-0.1 -2.6,-5 -5.2,-10 -7.7,-15 -0.1,0.1 -0.2,0.1 -0.3,0.1 z"
   class="st5"
   inkscape:connector-curvature="0"
   style="fill:#ffffff" />

	<path
   id="path1478"
   d="m 14.8,180.4 c 0,3 0,6.1 0,9.1 5.7,0 11.4,0 17.2,0 2.6,0 5.9,0.3 7.4,-0.9 0.9,-0.7 0.8,-1.9 1.1,-3.2 0.3,-1.7 -0.4,-3.6 -1.2,-4.2 -1.5,-1.1 -4.8,-0.7 -7.2,-0.7 -5.9,-0.1 -11.6,-0.1 -17.3,-0.1 z"
   class="st5"
   inkscape:connector-curvature="0"
   style="fill:#ffffff" />

</g>
  </g>
  <style
     id="style1410"
     type="text/css">
	.st0{fill:#243A65;}
	.st1{fill:#004E8C;}
	.st2{fill:none;}
	.st3{fill:#DFF1FC;}
	.st4{fill:#636B74;}
	.st5{fill:#FFFFFF;}
</style>
</svg>
