<?xml version="1.0" encoding="UTF-8" standalone="no"?>
<!-- Created with Inkscape (http://www.inkscape.org/) -->

<svg
   xmlns:dc="http://purl.org/dc/elements/1.1/"
   xmlns:cc="http://creativecommons.org/ns#"
   xmlns:rdf="http://www.w3.org/1999/02/22-rdf-syntax-ns#"
   xmlns:svg="http://www.w3.org/2000/svg"
   xmlns="http://www.w3.org/2000/svg"
   xmlns:sodipodi="http://sodipodi.sourceforge.net/DTD/sodipodi-0.dtd"
   xmlns:inkscape="http://www.inkscape.org/namespaces/inkscape"
   width="447mm"
   height="297mm"
   viewBox="0 0 447 297"
   version="1.1"
   id="svg865"
   sodipodi:docname="LOGO VECTOR ARGENTINA.svg"
   inkscape:version="0.92.4 (5da689c313, 2019-01-14)">
  <defs
     id="defs859" />
  <sodipodi:namedview
     id="base"
     pagecolor="#ffffff"
     bordercolor="#666666"
     borderopacity="1.0"
     inkscape:pageopacity="0.0"
     inkscape:pageshadow="2"
     inkscape:zoom="0.35"
     inkscape:cx="838.38405"
     inkscape:cy="410.49538"
     inkscape:document-units="mm"
     inkscape:current-layer="g1480"
     showgrid="false"
     inkscape:window-width="1366"
     inkscape:window-height="705"
     inkscape:window-x="-8"
     inkscape:window-y="-8"
     inkscape:window-maximized="1" />
  <metadata
     id="metadata862">
    <rdf:RDF>
      <cc:Work
         rdf:about="">
        <dc:format>image/svg+xml</dc:format>
        <dc:type
           rdf:resource="http://purl.org/dc/dcmitype/StillImage" />
        <dc:title></dc:title>
      </cc:Work>
    </rdf:RDF>
  </metadata>
  <g
     inkscape:groupmode="layer"
     id="layer3"
     inkscape:label="subtitle2"
     style="display:inline">
    <text
       xml:space="preserve"
       style="font-style:normal;font-variant:normal;font-weight:normal;font-stretch:normal;font-size:51.38555145px;line-height:1.25;font-family:MicroExtendFLF;-inkscape-font-specification:MicroExtendFLF;letter-spacing:0px;word-spacing:0px;fill:#636b74;fill-opacity:1;stroke:none;stroke-width:0.26458332"
       x="3.0945387"
       y="261.10342"
       id="text1545"><tspan
         sodipodi:role="line"
         id="tspan1543"
         x="3.0945387"
         y="261.10342"
         style="font-size:51.38555145px;fill:#636b74;fill-opacity:1;stroke-width:0.26458332">SECTION</tspan></text>
  </g>
  <g
     inkscape:groupmode="layer"
     id="layer2"
     inkscape:label="subtitle1"
     style="display:inline">
    <text
       xml:space="preserve"
       style="font-style:normal;font-variant:normal;font-weight:normal;font-stretch:normal;font-size:39.52733994px;line-height:1.25;font-family:MicroExtendFLF;-inkscape-font-specification:MicroExtendFLF;letter-spacing:0px;word-spacing:0px;fill:#004a97;fill-opacity:1;stroke:none;stroke-width:0.26458332"
       x="3.6108472"
       y="199.45203"
       id="text1539"><tspan
         sodipodi:role="line"
         id="tspan1537"
         x="3.6108472"
         y="199.45203"
         style="font-style:normal;font-variant:normal;font-weight:bold;font-stretch:normal;font-size:57.97344208px;font-family:MicroExtendFLF;-inkscape-font-specification:'MicroExtendFLF Bold';fill:#004a97;fill-opacity:1;stroke-width:0.26458332">ARGENTINA</tspan></text>
  </g>
  <g
     inkscape:label="Capa 1"
     inkscape:groupmode="layer"
     id="layer1"
     style="display:inline">
    <g
       id="g1480"
       transform="matrix(0.26458333,0,0,0.26458333,27.654629,139.86359)">
      <path
         id="path1412"
         d="m 1042.5362,-435.9693 c 44.4448,-0.37347 76.9382,5.60231 107.1906,18.67433 7.8433,3.73487 15.313,7.84323 23.1562,11.57809 2.6145,1.49395 5.6023,3.36139 8.2167,4.85534 0,28.38498 0,56.76997 -0.3735,85.15496 -0.3734,0 -0.3734,-0.37348 -0.7469,-0.37348 -2.9879,-6.72277 -18.3009,-18.30084 -24.6502,-22.78269 -30.2524,-22.40921 -81.42,-41.83052 -134.8286,-28.385 -41.45711,10.45762 -81.04665,35.48124 -99.3475,68.34808 -4.48191,7.84321 -9.33721,14.93947 -13.07206,23.90315 -0.74696,2.24091 -3.36136,6.34927 -2.98787,7.84321 -4.10833,9.71066 -5.97585,20.91526 -8.21676,32.49335 -0.37349,4.10836 -0.74697,8.21671 -0.74697,12.69855 0,5.22881 0,10.08415 -0.37348,15.31295 0.74696,5.60231 1.12045,11.20461 1.86742,17.1804 2.241,11.95157 5.22888,23.15618 9.7107,33.61381 18.30084,44.81839 55.27601,76.191267 103.45582,91.504234 25.7706,8.216697 65.7337,8.59018 91.8777,0.373482 22.7827,-7.096251 41.8305,-17.180395 58.6374,-30.252433 4.8553,-4.481839 10.0841,-9.337163 14.9395,-13.819003 1.8674,-1.86742 3.3614,-3.73486 5.2288,-5.22881 0,20.91526 0,42.203995 0,63.119248 0,3.734875 0.747,20.168289 -0.3735,22.035718 -5.6022,5.602304 -20.9152,11.951572 -29.132,15.312966 C 1107.8964,6.2389589 1045.8975,14.829156 991.74196,-1.9777393 917.79164,-24.760439 868.11786,-72.940214 841.60031,-141.66177 c -11.57808,-30.25242 -16.8069,-78.80569 -8.2167,-116.90134 16.80689,-73.2034 67.22764,-132.2143 132.21425,-158.35836 14.93947,-5.97579 30.62592,-10.45762 47.80634,-14.56598 7.0963,-1.12047 13.819,-1.86744 20.9152,-2.9879 2.6145,-1.12046 5.2289,-1.12046 8.2168,-1.49395 z"
         class="st0"
         inkscape:connector-curvature="0"
         style="fill:#243a65;stroke-width:1" />
      <path
         id="path1414"
         d="m 146.16804,-415.05404 c 25.77059,0 30.25244,16.05993 39.5896,31.74636 11.57809,19.42133 21.66224,39.58959 33.24033,59.0109 56.76997,101.21491 113.53996,202.80329 170.30993,304.018199 -25.39709,0 -51.16768,0 -76.56478,0 -17.92736,-32.493344 -36.2282,-65.360188 -54.15556,-97.853529 -57.14348,0 -114.28694,0 -171.430408,0 10.084134,-18.67432 19.794788,-36.97518 29.878948,-55.6495 36.97518,0 73.95036,0 110.92555,0 0,-0.37351 0,-0.37351 -0.37349,-0.74699 -26.51755,-47.80629 -53.40861,-95.98609 -79.92617,-144.16587 0,0 -0.37349,0 -0.37349,0.37349 -54.902529,99.34747 -109.431588,199.0684 -163.960649,298.415881 -24.276637,0 -48.179787,0 -72.456423,0 0,-0.373482 0,-0.373482 0,-0.746982 C -34.226024,-118.5056 20.303039,-216.7326 75.205586,-314.58611 c 11.204596,-20.1683 22.782679,-40.33656 33.987274,-60.50486 7.09625,-12.32505 12.32507,-26.51755 23.52967,-34.73427 4.10835,-2.98789 8.59019,-2.98789 13.44551,-5.2288 z"
         class="st0"
         inkscape:connector-curvature="0"
         style="fill:#243a65;stroke-width:1" />
      <path
         id="path1416"
         d="m 629.08638,-415.05404 c 26.89104,0 32.11984,18.30084 41.8305,35.10775 10.83111,19.42131 22.03572,38.84261 32.86683,58.63741 56.3965,100.46794 112.4195,200.93586 168.81599,301.403781 -25.3971,0 -51.16767,0 -76.56476,0 -17.92738,-32.493344 -36.22822,-65.360188 -54.15558,-97.853531 -57.14347,0 -114.66043,0 -171.80389,0 0,0 0,0 0,-0.37348 10.08414,-18.30084 19.7948,-36.97518 29.87894,-55.6495 36.97519,0 73.95037,0 111.29903,0 0,0 -0.37347,-0.37351 -0.37347,-0.37351 -26.51757,-48.17977 -53.03512,-96.35957 -79.55268,-144.16586 0,0 -0.37348,0 -0.37348,0.37349 -54.52907,99.34745 -109.43161,198.69491 -163.96067,298.042391 -24.27664,0 -48.17979,0 -72.45642,0 0,0 0,0 0,-0.373482 53.4086,-95.239119 106.44371,-190.478239 159.85231,-286.090819 11.95157,-21.66224 23.90314,-42.95099 36.2282,-64.61321 7.84323,-13.07204 13.07204,-29.13196 25.02361,-38.46913 3.73487,-3.36139 7.84323,-2.98789 13.44554,-5.6023 z"
         class="st0"
         inkscape:connector-curvature="0"
         style="fill:#243a65;stroke-width:1" />
      <path
         id="path1418"
         d="m 1243.472,-409.82524 c 107.9377,0 215.8753,0 323.8129,0 0,22.78271 0,45.56538 0,68.34808 -87.0224,0 -173.6713,0 -260.6937,0 0,84.408 0,168.44251 0,252.850497 87.0224,0 174.0448,0 260.6937,0 0,22.7827 0,45.565382 0,68.348082 -107.9376,0 -215.8752,0 -323.8129,0 0,-129.599889 0,-259.573259 0,-389.546659 z"
         class="st0"
         inkscape:connector-curvature="0"
         style="fill:#243a65;stroke-width:1" />
      <path
         id="path1420"
         d="m 1352.5301,-246.98502 c 67.2276,0 134.0818,0 201.3094,0.37348 0,19.04783 0,38.46913 0,57.51696 -67.2276,0 -134.0818,0 -201.3094,0 0,-19.4213 0,-38.46913 0,-57.89044 z"
         class="st0"
         inkscape:connector-curvature="0"
         style="fill:#243a65;stroke-width:1" />
      <path
         id="path1422"
         d="m 1050.7528,-349.69387 c 13.4456,-0.37348 25.7707,0.37348 36.6017,3.36137 6.3493,1.86745 12.3251,3.73488 18.6744,5.60231 4.1084,10.45763 8.9637,23.15618 9.3371,36.22822 -5.2287,2.61441 -8.9636,6.34927 -9.7107,13.44551 0,1.86744 0,3.36138 0.3736,5.22883 -7.4698,0.74697 -17.5538,5.97579 -24.2767,8.96368 -17.1804,7.46974 -33.6138,15.68643 -48.1798,25.77058 -4.8553,3.73487 -9.7106,7.84321 -14.5659,11.57809 -4.8554,-1.12047 -5.6023,-4.10836 -13.819,-4.10836 -2.988,-7.09626 -5.97585,-13.81901 -8.96372,-20.91525 -4.8553,-12.32506 -7.4697,-25.3971 -10.08418,-39.96308 -0.74688,-4.85533 -2.98788,-20.91525 -0.74688,-25.02361 4.10833,-2.24093 8.21666,-4.48184 11.95151,-6.34927 7.46977,-3.36139 14.93947,-6.34929 23.15627,-8.5902 6.7227,-1.86745 13.8189,-2.61441 20.9152,-4.10836 3.3614,-0.74698 6.3492,-1.12046 9.3371,-1.12046 z"
         class="st1"
         inkscape:connector-curvature="0"
         style="fill:#004e8c;stroke-width:1" />
      <path
         id="path1424"
         d="m 1115.366,-336.62183 c 17.1804,8.21671 41.8305,25.0236 50.7942,40.71005 -8.2166,0 -16.4334,0 -23.1561,1.49395 -2.2409,0.37349 -4.4819,0.37349 -7.0963,0.74696 -0.747,-0.37347 -2.6144,-6.34927 -4.4818,-7.84321 -2.2409,-1.86743 -6.7227,-2.61441 -8.5902,-4.10835 -0.747,-4.10836 -1.494,-8.2167 -2.241,-12.69855 -1.4939,-6.34929 -3.3613,-12.32507 -5.2288,-18.30085 z"
         class="st1"
         inkscape:connector-curvature="0"
         style="fill:#004e8c;stroke-width:1" />
      <path
         id="path1426"
         d="m 977.17597,-324.67027 c 0,2.9879 0,5.60231 0.37348,8.59021 0.37348,4.48183 0.74697,8.59019 1.49394,13.07204 2.61439,13.819 5.60227,26.89103 10.08418,38.84261 1.49394,4.10835 9.33711,20.91525 8.96363,23.15618 -4.48182,2.24093 -8.96363,10.08414 -6.34924,17.55387 1.12046,2.24091 2.61439,4.48185 3.73485,6.72276 -7.09621,5.6023 -17.92736,20.16828 -22.78265,28.385 -3.73485,-0.74698 -7.46978,-3.73487 -13.44553,-2.24093 -3.73485,1.12047 -5.97576,4.10836 -8.96373,4.85532 -9.7106,-8.2167 -22.78266,-13.44552 -30.62584,-23.90315 -2.61439,-43.32444 16.80691,-72.08293 35.48124,-95.2391 4.10833,-5.22882 10.45756,-10.45762 15.68644,-14.56598 2.24089,-2.24093 4.4818,-3.73488 6.34923,-5.22883 z"
         class="st1"
         inkscape:connector-curvature="0"
         style="fill:#004e8c;stroke-width:1" />
      <path
         id="path1428"
         d="m 1155.7026,-288.81552 c 5.6023,0 10.8311,0 16.4334,0.37347 2.9879,5.22881 5.9758,10.45763 8.9637,15.68644 9.7106,21.66224 18.3009,53.40861 10.8312,84.40801 -1.4941,5.60229 -3.3615,19.04782 -6.3494,22.78268 -2.9878,3.73487 -26.144,9.71067 -33.2403,11.57809 -11.2045,2.9879 -23.9031,4.10836 -36.2282,6.34928 -3.7348,0.37347 -7.8432,0.37347 -11.578,0.74698 -0.7471,-1.49395 -1.1206,-3.36139 -1.8675,-4.85534 -0.747,-1.12046 -1.8675,-1.86744 -2.6144,-2.9879 0,-0.37348 0,-0.74696 0,-1.12044 1.1204,-2.24093 2.2409,-4.10836 3.3613,-6.34929 2.2409,-5.2288 4.482,-10.83111 6.3494,-16.05994 5.6022,-14.19248 9.3371,-29.50542 12.6986,-46.31234 0.7468,-7.46973 1.4939,-14.56599 2.2409,-22.03572 1.4939,-8.59019 1.4939,-20.16826 0.7469,-29.50545 3.7349,-1.12046 6.7227,-3.36138 8.5902,-6.34926 0.7469,-1.49395 1.4939,-2.61441 2.2409,-4.10836 5.6023,-1.86744 13.4455,0.37348 19.4213,-2.24091 z"
         class="st1"
         inkscape:connector-curvature="0"
         style="fill:#004e8c;stroke-width:1" />
      <path
         id="path1430"
         d="m 1109.7638,-279.85184 c 2.6144,1.86742 4.4818,3.36137 8.2166,4.48183 0.747,35.48124 -4.4818,66.48064 -14.566,91.87773 -2.2409,5.60231 -6.7227,19.79479 -10.084,23.52967 -8.5903,-2.24093 -11.5782,0.74697 -18.3009,2.2409 -4.8554,-4.10834 -10.0842,-8.21669 -14.9395,-12.32505 -13.4455,-10.83111 -31.7464,-31.74636 -39.9631,-47.80629 2.6145,-3.73487 4.8554,-9.33718 2.6145,-15.31296 2.9879,-3.73487 7.8432,-6.72276 11.9515,-9.71065 15.6864,-11.57809 33.2403,-20.91526 52.2881,-29.13197 7.4698,-2.24093 14.9395,-5.22882 22.7828,-7.84321 z"
         class="st2"
         inkscape:connector-curvature="0"
         style="fill:none;stroke-width:1" />
      <path
         id="path1432"
         d="m 1013.0307,-212.99773 c 1.8674,0.74697 12.6986,17.92736 15.3129,20.91526 10.0842,13.07204 28.0116,30.99939 41.8305,39.96307 -0.747,1.49395 -1.4939,3.36137 -2.2409,4.85532 -25.397,0.37351 -51.1677,-8.21669 -69.842,-15.68643 -6.34924,-2.61441 -13.07196,-5.22882 -19.4213,-7.84321 0,-2.24093 0.37349,-4.48184 0.37349,-6.72277 -0.74697,-1.86743 -1.49394,-3.73487 -2.24091,-5.6023 7.09621,-10.45763 14.93948,-21.66222 24.27672,-29.87894 3.7348,1.12047 9.3371,1.86743 11.9515,0 z"
         class="st2"
         inkscape:connector-curvature="0"
         style="fill:none;stroke-width:1" />
      <path
         id="path1434"
         d="m 920.03255,-198.80523 c 1.86742,1.86744 4.10833,3.36138 5.97575,5.22881 5.97576,4.48184 13.07206,11.57809 20.54175,14.1925 -0.37348,8.96368 1.49394,16.05994 8.21676,19.04782 -0.37348,2.61439 -1.86742,4.10834 -2.61439,5.97579 -2.61439,5.97579 -5.97585,12.69854 -7.09631,19.79479 0,0 -0.37348,0 -0.37348,-0.37348 -2.98788,-4.48184 -5.60227,-8.96368 -8.59015,-13.44552 -7.84327,-13.07204 -14.93948,-31.3729 -16.05993,-50.42071 z"
         class="st1"
         inkscape:connector-curvature="0"
         style="fill:#004e8c;stroke-width:1" />
      <path
         id="path1436"
         d="m 974.56157,-163.69749 c 8.96363,3.73488 18.30085,7.46973 27.26443,10.83112 19.048,7.46974 41.4571,12.69855 66.1072,13.44553 1.1205,5.6023 4.1084,7.84321 6.7228,11.57809 -1.4939,4.10834 -5.2289,7.84321 -7.8432,11.20458 -7.0963,9.33718 -14.566,19.79481 -23.9032,26.891044 -3.7348,2.987893 -7.4697,6.349286 -11.5781,9.337179 -29.8789,-2.614411 -67.22757,-28.011503 -81.0466,-47.432803 1.86752,-6.34929 3.36146,-12.32507 5.60237,-17.92736 1.86742,-4.48185 4.10833,-8.5902 5.97575,-13.07204 5.60236,0.37348 10.45766,-1.49395 12.69855,-4.85534 z"
         class="st1"
         inkscape:connector-curvature="0"
         style="fill:#004e8c;stroke-width:1" />
      <path
         id="path1438"
         d="m 1180.3528,-155.48077 c 0.3734,0 0.3734,0 0.7469,0 -5.9758,12.32505 -16.0599,29.87892 -26.5176,37.34866 -14.5659,-1.12047 -28.0114,-7.84322 -38.8426,-13.44552 -2.6144,-1.49395 -10.4576,-3.36137 -10.8311,-6.72275 0,0 0,0 0.3735,-0.37349 0,-0.37349 0.3734,-0.37349 0.3734,-0.74697 21.6623,0.37348 44.8185,-5.97579 61.6254,-11.57809 4.4818,-1.12047 9.3372,-2.24093 13.0721,-4.48184 z"
         class="st1"
         inkscape:connector-curvature="0"
         style="fill:#004e8c;stroke-width:1" />
      <path
         id="path1440"
         d="m 1101.1735,-130.83065 c 4.1084,2.24091 8.2168,4.10834 12.3251,6.34927 10.0841,5.2288 22.0357,10.83111 34.7343,12.32506 0,0 0,0.37349 -0.3735,0.37349 -3.3614,2.61439 -6.7227,5.60229 -10.0842,8.2167 -5.6023,3.36138 -11.2045,6.72277 -16.4334,10.084145 -11.578,6.722752 -25.3971,10.457627 -40.3365,13.819002 -5.6023,0.746982 -10.8312,1.120465 -16.4335,1.867447 -7.8431,1.120447 -16.0599,-0.746982 -23.1561,-0.746982 0,0 0,0 0,-0.373483 0.3735,-0.373481 0.747,-0.746982 0.747,-1.120463 4.8553,-2.240912 9.7106,-8.216716 13.072,-11.951574 6.7228,-8.216712 14.1924,-15.312952 20.1683,-24.276642 1.8674,-2.61439 3.7348,-5.22881 5.6023,-7.84322 9.7107,0.74698 16.0599,-1.12046 20.1682,-6.72275 z"
         class="st1"
         inkscape:connector-curvature="0"
         style="fill:#004e8c;stroke-width:1" />
      <path
         id="path1442"
         d="m 1106.0289,-340.73019 c 3.3614,1.49395 6.3493,2.61441 9.7106,4.10836 0.747,2.98789 1.8675,5.97578 2.6144,8.96368 2.2409,6.72276 3.7349,14.1925 4.4819,22.03572 7.0962,0.74697 11.9515,5.60229 13.4455,11.95156 7.0963,-0.37347 23.9032,-4.48183 30.6259,-1.86742 1.8674,2.61441 3.3614,4.85532 5.2288,7.46973 -12.6985,-0.74696 -25.0236,0.74698 -35.8547,2.24093 -1.1205,4.85533 -5.2288,9.33716 -10.0841,10.08413 0.3735,30.9994 -2.6145,58.63741 -10.0842,82.16708 -3.3613,8.96368 -6.7227,17.92736 -10.0841,26.89104 -1.8675,3.73487 -3.7349,7.46974 -5.2289,11.57809 2.241,1.86743 3.735,4.85533 4.4819,8.21672 5.9758,-0.74698 12.3251,-1.12047 18.3008,-1.86746 16.807,-2.98788 32.1199,-4.85532 46.3124,-10.08412 5.6024,-2.24093 10.8311,-4.48183 16.4334,-6.72277 -1.4939,3.36138 -2.9879,7.09625 -4.4818,10.45763 -4.8553,3.36138 -11.9516,4.10836 -17.5539,5.97579 -17.1804,5.22882 -36.9752,9.33717 -58.2639,10.08414 0,0.37349 0,1.12046 -0.3736,1.49395 7.0964,3.73487 14.1926,7.09625 21.2889,10.8311 8.9636,3.73488 18.3008,5.60231 28.7584,8.5902 -0.747,0.74698 -1.494,1.86743 -2.2409,2.61441 -1.494,1.12046 -2.6144,2.24092 -4.1084,3.36138 -13.819,-4.10836 -25.397,-7.84322 -36.9751,-13.81901 -5.2288,-2.61441 -8.9638,-6.72276 -12.6986,-1.86742 -4.8553,2.2409 -8.9636,4.85532 -16.8069,3.36137 -2.6144,3.36138 -4.8553,7.09625 -7.4697,10.45763 -9.3372,12.69855 -20.1683,26.14407 -32.8668,35.107749 -3.3614,-0.373481 -6.3494,-1.120463 -9.7107,-1.493946 0,0 0,-0.373483 0.3734,-0.373483 3.3615,-1.493946 5.6024,-4.481857 8.2168,-6.722768 9.7106,-7.843216 17.9274,-17.180392 25.0236,-27.264522 2.9878,-3.73488 8.2167,-8.21671 9.3372,-13.44554 -2.2409,-1.49394 -4.4818,-4.48183 -5.6024,-7.09622 -0.3735,-1.49395 -0.747,-2.61442 -1.1204,-4.10836 -2.6144,0 -5.2288,-0.37349 -7.8432,-0.37349 -7.4698,-1.12046 -14.566,-1.86744 -22.0357,-2.98788 -15.313,-3.3614 -29.879,-7.09626 -43.32451,-12.69856 -6.72272,-2.61441 -13.44554,-5.60231 -20.16826,-8.21672 -2.6144,2.9879 -7.0963,5.22882 -12.69856,5.22882 -2.61439,6.34927 -5.60227,13.07204 -8.21666,19.42131 -1.12045,3.73488 -2.24091,7.84322 -3.36136,11.57808 -1.86742,-2.61441 -3.73494,-4.85532 -5.22888,-7.46972 3.36146,-8.96368 6.34933,-17.55388 10.08418,-25.3971 -6.72272,-2.61441 -9.33721,-9.71066 -8.21676,-19.04782 -3.73484,-1.49395 -25.02356,-16.80691 -26.5175,-19.42131 -0.37349,-3.73487 -0.37349,-7.46973 -0.74697,-11.2046 2.98787,2.98788 6.34924,5.6023 9.33711,8.59019 7.09631,5.60231 14.19252,10.45763 21.6623,15.31295 4.8553,-3.73486 14.93939,-8.21669 21.2887,-2.61441 2.98788,-3.73486 5.60227,-7.84322 8.59015,-11.57807 4.8554,-5.6023 9.7107,-11.20461 14.566,-16.80692 -4.8553,-8.2167 -6.34924,-19.4213 3.36136,-24.65013 -8.21666,-18.30084 -14.19242,-36.97518 -19.04781,-59.38438 -1.12046,-4.48183 -3.73485,-20.54177 -1.49394,-24.65013 2.24091,-1.49395 4.48181,-2.61439 6.72282,-4.10834 0,0 0,0 0.37339,0 -1.12036,26.89105 5.22888,48.55328 12.69857,67.97459 2.61443,5.97578 5.22893,11.95157 7.84323,17.55387 2.241,0 4.4819,0.37349 6.7228,0.37349 1.8674,0.74696 5.6023,3.73485 6.7227,3.36137 5.6024,-4.10835 11.2046,-8.5902 16.4335,-12.69854 13.072,-8.96368 27.638,-16.80691 42.9509,-23.52966 6.3493,-2.61442 13.0721,-4.85534 19.4213,-7.46974 2.2409,-0.74697 6.7227,-1.12046 7.8433,-2.98789 -2.988,-10.08414 4.8553,-13.81902 9.3371,-17.92738 -1.1204,-9.33715 -3.3613,-18.30083 -5.9757,-26.89104 -1.8675,-2.61441 -2.9879,-5.60229 -4.1084,-8.59019 z"
         class="st3"
         inkscape:connector-curvature="0"
         style="fill:#dff1fc;stroke-width:1" />
      <path
         id="path1444"
         d="m 1109.3903,-279.47837 c -5.6024,1.86744 -10.8312,3.73487 -16.4334,5.60231 -11.2047,4.48185 -22.4092,8.96368 -32.4934,14.93947 -7.8433,4.85532 -15.6864,9.71064 -23.9031,14.56598 -4.4819,3.73486 -9.3372,7.46973 -13.819,11.2046 1.8674,5.97578 -2.2409,16.05992 -2.2409,16.05992 2.2409,6.34927 7.8431,11.95158 11.578,17.1804 11.5781,15.68643 26.8911,31.37288 42.951,42.57749 2.9879,-1.12047 5.2288,-2.9879 8.9636,-3.36139 2.9879,-0.37349 7.8433,1.49395 8.9638,0.74698 2.9878,-4.10836 4.4818,-9.71066 6.3492,-14.56599 5.9758,-13.819 10.0842,-28.38499 13.819,-44.8184 1.1205,-7.84323 2.2409,-15.68645 3.3614,-23.90316 0.3735,-7.84321 0.747,-15.68643 1.1205,-23.90315 0,-2.61439 0,-5.6023 -0.3735,-8.2167 z"
         class="st1"
         inkscape:connector-curvature="0"
         style="fill:#004e8c;stroke-width:1" />
      <path
         id="path1446"
         d="m 1013.4042,-212.99773 c -4.4818,2.9879 -10.4576,-0.37348 -13.81906,2.24091 -2.98788,3.73487 -6.34924,7.09626 -9.33712,10.83113 -4.10842,5.60231 -8.59024,11.20459 -12.69857,17.18038 0.74697,1.86744 1.12045,3.73488 1.86742,5.6023 0.37349,2.24093 -0.74697,5.97579 0,7.09625 6.34934,4.48184 15.68645,6.72278 23.52973,9.71066 18.6743,7.09624 40.71,13.44553 65.3601,13.81901 0.747,-1.86743 1.1204,-3.36138 1.8674,-5.22882 -3.7348,-1.86744 -6.7227,-5.60229 -10.0841,-8.2167 -11.9516,-9.33717 -23.9032,-20.91526 -32.8668,-33.24033 -4.4818,-6.72275 -9.3372,-13.07202 -13.819,-19.79479 z"
         class="st1"
         inkscape:connector-curvature="0"
         style="fill:#004e8c;stroke-width:1" />
    </g>
  </g>
  <style
     id="style1410"
     type="text/css">
	.st0{fill:#243A65;}
	.st1{fill:#004E8C;}
	.st2{fill:none;}
	.st3{fill:#DFF1FC;}
	.st4{fill:#636B74;}
	.st5{fill:#FFFFFF;}
</style>
</svg>
